<svg xmlns="http://www.w3.org/2000/svg" viewBox="0 0 200 200">
  <defs>
    <linearGradient id="bg" x1="0" y1="0" x2="1" y2="1">
      <stop offset="0%" stop-color="#7dd3fc"/>
      <stop offset="100%" stop-color="#3b82f6"/>
    </linearGradient>
  </defs>
  <rect width="200" height="200" rx="40" fill="#f8fbff"/>
  <rect x="10" y="10" width="180" height="180" rx="34" fill="url(#bg)"/>
  <circle cx="100" cy="74" r="33" fill="#fde7d7"/>
  <path d="M56 162c9-31 30-45 44-45 14 0 35 14 44 45" fill="#fff4ed"/>
  <path d="M65 67c4-26 22-40 44-40 20 0 37 12 43 36-11-8-24-12-38-12-18 0-33 6-49 16z" fill="#1f3b61"/>
  <circle cx="87" cy="76" r="4" fill="#23344f"/>
  <circle cx="113" cy="76" r="4" fill="#23344f"/>
  <path d="M90 92c7 6 13 6 20 0" stroke="#23344f" stroke-width="5" stroke-linecap="round" fill="none"/>
</svg>
