<svg xmlns="http://www.w3.org/2000/svg" viewBox="0 0 200 200">
  <defs>
    <linearGradient id="bg" x1="0" y1="0" x2="1" y2="1">
      <stop offset="0%" stop-color="#fde68a"/>
      <stop offset="100%" stop-color="#f97316"/>
    </linearGradient>
  </defs>
  <rect width="200" height="200" rx="40" fill="#fffaf0"/>
  <rect x="10" y="10" width="180" height="180" rx="34" fill="url(#bg)"/>
  <circle cx="100" cy="76" r="32" fill="#f6d4b5"/>
  <path d="M56 162c9-30 29-46 44-46 16 0 35 16 44 46" fill="#fff7ed"/>
  <path d="M55 68c10-28 29-42 50-42 22 0 39 15 45 39-10-4-20-6-30-6-9 0-16 1-24 4 3-8 5-15 6-21-14 6-27 15-47 26z" fill="#7c2d12"/>
  <circle cx="88" cy="79" r="4" fill="#43211a"/>
  <circle cx="114" cy="79" r="4" fill="#43211a"/>
  <path d="M90 95c7 5 14 5 20 0" stroke="#43211a" stroke-width="5" stroke-linecap="round" fill="none"/>
</svg>
